<?xml version="1.0" standalone="no"?>
<!DOCTYPE svg PUBLIC "-//W3C//DTD SVG 20010904//EN"
 "http://www.w3.org/TR/2001/REC-SVG-20010904/DTD/svg10.dtd">
<svg version="1.0" xmlns="http://www.w3.org/2000/svg"
 width="260.000000pt" height="260.000000pt" viewBox="0 0 260.000000 260.000000"
 preserveAspectRatio="xMidYMid meet">
<metadata>
Created by potrace 1.11, written by Peter Selinger 2001-2013
</metadata>
<g transform="translate(0.000000,260.000000) scale(0.100000,-0.100000)"
fill="#000000" stroke="none">
<path d="M187 2418 c10 -95 10 -2151 0 -2246 l-7 -72 1132 2 1133 3 13 140 c6
77 11 167 10 200 -3 58 -4 60 -28 56 -44 -6 -1723 -12 -1747 -6 l-24 6 2 992
1 992 -246 3 -246 2 7 -72z"/>
<path d="M1430 2465 c-6 -15 -10 -31 -10 -37 0 -6 -18 -70 -41 -142 -23 -72
-65 -207 -94 -301 -30 -93 -77 -244 -105 -335 -28 -91 -55 -176 -60 -190 -5
-14 -17 -54 -28 -90 -62 -202 -126 -398 -152 -461 -17 -39 -30 -73 -30 -75 0
-2 96 -4 213 -4 223 0 237 3 237 44 1 36 48 216 60 232 10 12 60 14 286 14
316 0 280 15 313 -130 12 -52 25 -108 29 -125 l8 -30 224 -3 c123 -1 228 2
233 7 5 5 1 26 -11 52 -24 56 -59 158 -112 329 -23 74 -50 160 -60 190 -10 30
-42 129 -70 220 -28 91 -55 176 -60 190 -5 14 -32 99 -60 190 -29 91 -65 206
-80 255 -16 50 -37 119 -47 155 l-19 65 -277 3 -277 2 -10 -25z m294 -407 c9
-29 21 -69 26 -88 5 -19 37 -130 70 -247 33 -117 60 -219 60 -227 0 -14 -23
-16 -173 -16 -96 0 -176 2 -179 6 -3 3 3 35 13 72 11 37 24 83 29 102 47 172
71 257 90 330 22 81 36 120 44 120 2 0 11 -24 20 -52z"/>
</g>
</svg>
