<svg version="1" xmlns="http://www.w3.org/2000/svg" width="346.667" height="346.667" viewBox="0 0 260.000000 260.000000"><path d="M46.5 134.5V221h162.3l.6-9.2c.4-5.1.9-11.8 1.2-14.8l.5-5.5-65.1.3-65.2.2.4-72 .3-72h-35v86.5z"/><path d="M135.7 48.6c-.4.4-.7 1.5-.7 2.5 0 2.3-32.5 106.6-35.1 112.6l-1.8 4.3h16c11.9 0 16-.3 16.3-1.3.2-.6 1.2-5 2.3-9.7l1.9-8.5 20.5-.3 20.6-.2 2.2 10 2.3 10h16.9c11.1 0 16.9-.4 16.9-1s-.7-2.4-1.4-3.9c-1.4-2.6-28.9-89-34.1-106.6l-2.3-8-19.9-.3c-11-.1-20.2.1-20.6.4zm32.3 72.1c0 .2-5.6.3-12.5.3-7.5 0-12.5-.4-12.5-1 0-1.1 10.7-40.6 11.6-43 .4-1 13.3 40.9 13.4 43.7z"/></svg>