<svg version="1" xmlns="http://www.w3.org/2000/svg" width="346.667" height="346.667" viewBox="0 0 260.000000 260.000000"><path d="M18.5 130.5V250h226.2l1.1-12.7c.7-7.1 1.4-16.2 1.6-20.3l.4-7.5H67.5v-83c0-45.7.2-90.2.4-99l.5-16-25-.3-24.9-.2v119.5z"/><path d="M142.7 11.7c-.4.3-.7 1.6-.7 2.7 0 2-1 5.4-11.8 40.1-20.8 66.5-32.9 104.3-35.8 112.1-1.9 5.1-3.4 9.5-3.4 9.8 0 .4 10 .5 22.2.4l22.2-.3 3.1-13c1.7-7.2 3.4-13.6 3.8-14.3 1.2-1.8 54-1.8 55.5.1 1 1.2 5.7 19.3 6.4 24.7l.3 2.5 23 .3c12.6.1 23.5 0 24.2-.2.9-.4.5-2.2-1.4-6.8-2.5-6.3-7.8-22.3-19.2-58.3C213.9 57.2 202 19 201 15.2l-1.1-4.2h-28.3c-15.5 0-28.6.3-28.9.7zM172 53.4c0 .7 3.6 13.8 7.9 29.1 4.4 15.4 7.7 28.3 7.5 28.7-.7 1.1-33.1 1-33.8-.1-.3-.4.5-4.6 1.8-9.2s3.8-13.8 5.6-20.4c5.7-20.9 7.9-28.5 8.5-29.5.8-1.3 2.5-.3 2.5 1.4z"/></svg>